<svg width="1200" height="800" viewBox="0 0 1200 800" fill="none" xmlns="http://www.w3.org/2000/svg">
  <rect width="1200" height="800" fill="#F3F3F3"/>
  <g stroke="#1A1A1A" stroke-width="2" opacity="0.28">
    <path d="M80 120H380V280H620V430H910"/>
    <path d="M120 520H320V390H570V250H840V130H1040"/>
    <path d="M200 680H420V560H690V470H990"/>
  </g>
  <g fill="#1A1A1A" opacity="0.4">
    <circle cx="380" cy="120" r="7"/>
    <circle cx="620" cy="280" r="7"/>
    <circle cx="910" cy="430" r="7"/>
    <circle cx="320" cy="390" r="7"/>
    <circle cx="570" cy="250" r="7"/>
    <circle cx="840" cy="130" r="7"/>
    <circle cx="420" cy="560" r="7"/>
    <circle cx="690" cy="470" r="7"/>
    <circle cx="990" cy="470" r="7"/>
  </g>
  <g opacity="0.2">
    <rect x="70" y="700" width="220" height="16" rx="8" fill="#1A1A1A"/>
    <rect x="320" y="700" width="180" height="16" rx="8" fill="#1A1A1A"/>
    <rect x="530" y="700" width="250" height="16" rx="8" fill="#1A1A1A"/>
  </g>
</svg>
